<?xml version="1.0" encoding="UTF-8" standalone="no" ?>
<!DOCTYPE svg PUBLIC "-//W3C//DTD SVG 1.1//EN" "http://www.w3.org/Graphics/SVG/1.1/DTD/svg11.dtd">
<svg xmlns="http://www.w3.org/2000/svg" xmlns:xlink="http://www.w3.org/1999/xlink" version="1.1" width="500" height="500" viewBox="0 0 500 500" xml:space="preserve">
<desc>Created with Fabric.js 4.6.0</desc>
<defs>
</defs>
<g transform="matrix(1.67 0 0 1.67 250 250)" id="T5H5HzcYoff9Wd9MKTHRm"  >
<g style="" vector-effect="non-scaling-stroke"   >
		<g transform="matrix(0.65 0 0 0.65 0 0)" id="6izynYm9eT0QACsofWyF7"  >
<path style="stroke: none; stroke-width: 1; stroke-dasharray: none; stroke-linecap: butt; stroke-dashoffset: 0; stroke-linejoin: miter; stroke-miterlimit: 4; fill: rgb(0,0,0); fill-rule: nonzero; opacity: 1;" vector-effect="non-scaling-stroke"  transform=" translate(-230, -230)" d="M 369.635 0 L 90.365 0 C 73.595 0 60 13.595 60 30.365 L 60 429.635 C 60 446.405 73.595 460 90.365 460 L 369.635 460 C 386.405 460 400 446.405 400 429.635 L 400 30.365 C 400 13.595 386.405 0 369.635 0 z M 108.204 343.61 L 108.204 300.414 C 108.204 296.96299999999997 111.00099999999999 294.166 114.452 294.166 L 157.648 294.166 C 161.099 294.166 163.896 296.963 163.896 300.414 L 163.896 343.61 C 163.896 347.06100000000004 161.099 349.858 157.648 349.858 L 114.452 349.858 C 111.001 349.858 108.204 347.06 108.204 343.61 z M 108.204 256.61 L 108.204 213.41400000000002 C 108.204 209.96300000000002 111.00099999999999 207.16600000000003 114.452 207.16600000000003 L 157.648 207.16600000000003 C 161.099 207.16600000000003 163.896 209.96300000000002 163.896 213.41400000000002 L 163.896 256.61 C 163.896 260.06100000000004 161.099 262.858 157.648 262.858 L 114.452 262.858 C 111.001 262.858 108.204 260.06 108.204 256.61 z M 308.891 421 L 151.109 421 C 140.06300000000002 421 131.109 412.046 131.109 401 C 131.109 389.954 140.06300000000002 381 151.109 381 L 308.891 381 C 319.937 381 328.891 389.954 328.891 401 C 328.891 412.046 319.937 421 308.891 421 z M 208.402 294.165 L 251.59799999999998 294.165 C 255.04899999999998 294.165 257.846 296.96200000000005 257.846 300.413 L 257.846 343.60900000000004 C 257.846 347.06000000000006 255.049 349.857 251.598 349.857 L 208.40200000000002 349.857 C 204.95100000000002 349.857 202.15400000000002 347.06 202.15400000000002 343.60900000000004 L 202.15400000000002 300.413 C 202.154 296.963 204.951 294.165 208.402 294.165 z M 202.154 256.61 L 202.154 213.41400000000002 C 202.154 209.96300000000002 204.951 207.16600000000003 208.402 207.16600000000003 L 251.59799999999998 207.16600000000003 C 255.04899999999998 207.16600000000003 257.846 209.96300000000002 257.846 213.41400000000002 L 257.846 256.61 C 257.846 260.06100000000004 255.049 262.858 251.598 262.858 L 208.40200000000002 262.858 C 204.951 262.858 202.154 260.06 202.154 256.61 z M 345.548 349.858 L 302.352 349.858 C 298.90099999999995 349.858 296.104 347.061 296.104 343.61 L 296.104 300.414 C 296.104 296.96299999999997 298.901 294.166 302.352 294.166 L 345.548 294.166 C 348.999 294.166 351.796 296.963 351.796 300.414 L 351.796 343.61 L 351.796 343.61 C 351.796 347.061 348.999 349.858 345.548 349.858 z M 345.548 262.858 L 302.352 262.858 C 298.90099999999995 262.858 296.104 260.061 296.104 256.61 L 296.104 213.41400000000002 C 296.104 209.96300000000002 298.901 207.16600000000003 302.352 207.16600000000003 L 345.548 207.16600000000003 C 348.999 207.16600000000003 351.796 209.96300000000002 351.796 213.41400000000002 L 351.796 256.61 L 351.796 256.61 C 351.796 260.061 348.999 262.858 345.548 262.858 z M 354 149.637 C 354 161.436 344.435 171 332.637 171 L 127.364 171 C 115.565 171 106 161.435 106 149.637 L 106 62.363 C 106 50.565 115.565 41 127.364 41 L 332.637 41 C 344.435 41 354 50.565 354 62.363 L 354 149.637 z" stroke-linecap="round" />
</g>
		<g transform="matrix(0.13 -0.13 0.13 0.13 0 -79.6)" id="N0-3AsGE2GQSqRp0a0mfA"  >
<g style="" vector-effect="non-scaling-stroke"   >
		<g transform="matrix(1 0 0 1 241.42 0)" id="pmLQDSLRpKdrUgk52g7B-"  >
<path style="stroke: none; stroke-width: 1; stroke-dasharray: none; stroke-linecap: butt; stroke-dashoffset: 0; stroke-linejoin: miter; stroke-miterlimit: 4; fill: rgb(0,0,0); fill-rule: nonzero; opacity: 1;" vector-effect="non-scaling-stroke"  transform=" translate(-491.44, -250.02)" d="M 491.445 206.857 C 486.693 206.857 482.84 211.714 482.84 217.691 C 482.84 234.273 482.84 265.791 482.84 282.363 C 482.84 288.34 486.69399999999996 293.187 491.455 293.187 C 496.207 293.187 500.043 288.339 500.043 282.363 C 500.043 265.801 500.043 234.28199999999998 500.043 217.68099999999998 C 500.043 211.714 496.197 206.857 491.445 206.857 z" stroke-linecap="round" />
</g>
		<g transform="matrix(1 0 0 1 -241.41 0)" id="UvpsXzZqwqgAOPbRc4r1_"  >
<path style="stroke: none; stroke-width: 1; stroke-dasharray: none; stroke-linecap: butt; stroke-dashoffset: 0; stroke-linejoin: miter; stroke-miterlimit: 4; fill: rgb(0,0,0); fill-rule: nonzero; opacity: 1;" vector-effect="non-scaling-stroke"  transform=" translate(-8.61, -250.02)" d="M 8.616 206.857 C 3.864 206.857 0 211.714 0 217.691 C 0 234.292 0 265.762 0.01 282.344 C 0.01 288.32099999999997 3.864 293.168 8.616 293.188 C 13.369 293.188 17.213 288.34 17.213 282.364 C 17.213 265.792 17.213 234.28299999999996 17.223000000000003 217.68199999999996 C 17.222 211.714 13.369 206.857 8.616 206.857 z" stroke-linecap="round" />
</g>
		<g transform="matrix(1 0 0 1 -2.31 0)" id="VP1ZTq31pPwT-v7oP6SWf"  >
<path style="stroke: none; stroke-width: 1; stroke-dasharray: none; stroke-linecap: butt; stroke-dashoffset: 0; stroke-linejoin: miter; stroke-miterlimit: 4; fill: rgb(0,0,0); fill-rule: nonzero; opacity: 1;" vector-effect="non-scaling-stroke"  transform=" translate(-247.71, -250.02)" d="M 114.568 108.812 C 98.714 108.812 85.852 123.356 85.852 141.286 C 85.852 195.64 85.86200000000001 304.423 85.872 358.757 C 85.872 376.687 98.714 391.23 114.569 391.23 C 130.424 391.23 143.285 376.677 143.285 358.757 C 143.285 337.44100000000003 143.285 307.712 143.285 276.212 C 159.838 276.212 307.998 276.212 352.159 276.212 C 352.159 307.722 352.159 337.441 352.159 358.767 C 352.159 376.687 365.02 391.23 380.876 391.23 C 396.72999999999996 391.23 409.573 376.677 409.573 358.757 C 409.573 304.403 409.573 195.62 409.573 141.286 C 409.573 123.34700000000001 396.729 108.81200000000001 380.876 108.81200000000001 C 365.02099999999996 108.81200000000001 352.159 123.33700000000002 352.159 141.286 C 352.159 162.601 352.159 192.321 352.159 223.829 C 307.981 223.829 159.838 223.829 143.285 223.829 C 143.285 192.321 143.285 162.60000000000002 143.285 141.276 C 143.285 123.338 130.433 108.812 114.568 108.812 z" stroke-linecap="round" />
</g>
		<g transform="matrix(1 0 0 1 196.18 0.01)" id="VgNPyApFd6P7bFkOTsY5D"  >
<path style="stroke: none; stroke-width: 1; stroke-dasharray: none; stroke-linecap: butt; stroke-dashoffset: 0; stroke-linejoin: miter; stroke-miterlimit: 4; fill: rgb(0,0,0); fill-rule: nonzero; opacity: 1;" vector-effect="non-scaling-stroke"  transform=" translate(-446.2, -250.03)" d="M 447.602 152.188 C 446.664 152.188 445.73699999999997 152.188 444.791 152.188 C 432.846 152.188 423.15 161.856 423.15 173.81799999999998 C 423.15 211.46499999999997 423.15 288.578 423.15 326.224 C 423.15 338.17699999999996 432.84499999999997 347.87399999999997 444.798 347.87399999999997 C 445.736 347.87399999999997 446.683 347.87399999999997 447.61 347.87399999999997 C 459.563 347.87399999999997 469.25800000000004 338.20599999999996 469.25800000000004 326.24299999999994 C 469.25800000000004 288.60599999999994 469.25800000000004 211.48399999999992 469.25000000000006 173.83599999999993 C 469.26 161.875 459.555 152.188 447.602 152.188 z" stroke-linecap="round" />
</g>
		<g transform="matrix(1 0 0 1 -199.32 0.01)" id="gwmsyP0gEF6yORkbZNYhL"  >
<path style="stroke: none; stroke-width: 1; stroke-dasharray: none; stroke-linecap: butt; stroke-dashoffset: 0; stroke-linejoin: miter; stroke-miterlimit: 4; fill: rgb(0,0,0); fill-rule: nonzero; opacity: 1;" vector-effect="non-scaling-stroke"  transform=" translate(-50.7, -250.03)" d="M 52.116 152.188 C 51.179 152.188 50.232 152.188 49.295 152.188 C 37.342 152.188 27.655 161.856 27.655 173.81799999999998 C 27.655 211.46499999999997 27.655 288.578 27.655 326.224 C 27.655 338.187 37.342 347.87399999999997 49.295 347.87399999999997 C 50.232 347.87399999999997 51.179 347.87399999999997 52.106 347.87399999999997 C 64.059 347.87399999999997 73.74600000000001 338.20599999999996 73.74600000000001 326.24299999999994 C 73.74600000000001 288.60599999999994 73.74600000000001 211.48399999999992 73.74600000000001 173.83599999999993 C 73.756 161.875 64.069 152.188 52.116 152.188 z" stroke-linecap="round" />
</g>
</g>
</g>
</g>
</g>
</svg>